<?xml version="1.0" encoding="iso-8859-1"?>
<!-- Generator: Adobe Illustrator 19.0.0, SVG Export Plug-In . SVG Version: 6.00 Build 0)  -->
<svg version="1.1" id="Capa_1" xmlns="http://www.w3.org/2000/svg" xmlns:xlink="http://www.w3.org/1999/xlink" x="0px" y="0px"
	 viewBox="0 0 512 512" style="enable-background:new 0 0 512 512;" xml:space="preserve">
<path style="fill:#F49365;" d="M500.56,29.804c8.459-7.133,2.274-20.847-8.677-19.268
	C380.312,26.631,285.285,67.585,210.345,113.723c-6.182,3.806-13.844-1.916-11.984-8.933c4.922-18.569,10.183-36.484,15.909-52.9
	c2.695-7.728-6.928-13.74-12.737-7.974c-29.789,29.57-72.218,85.617-104.589,139.334c-12.875,21.365-27.488,41.631-43.861,60.448
	c-0.658,0.757-1.314,1.516-1.968,2.278c-6.757,7.875-13.296,16.021-19.212,24.551l0.032,0.01
	C6.548,309.1-1.473,360.113,19.223,412.493c14.027,35.501,42.109,63.513,77.649,77.436
	c96.935,37.978,189.354-22.116,206.115-109.143c0.037-0.191,0.073-0.395,0.109-0.61c5.688-33.899,19.632-65.87,41.35-92.512
	c34.292-42.068,72.526-89.74,108.636-124.706c5.831-5.646,0.074-15.303-7.648-12.807c-18.564,6.002-42.193,15.926-67.642,28.244
	c-4.727,2.288-9.428-3.159-6.466-7.496C412.757,110.233,464.974,59.81,500.56,29.804z"/>
<path style="fill:#EAEAEA;" d="M250.028,289.298l-20.017-18.256c-2.663-2.429-5.51-4.65-8.515-6.641l-18.364-12.168
	c-26.92-17.836-62.544-14.963-86.258,6.958l-25.372,23.456c-4.457,4.12-8.358,8.8-11.609,13.925l-11.405,17.984
	c-15.245,24.039-14.43,54.912,2.062,78.114l16.385,23.051c14.476,20.366,38.703,31.48,63.583,29.17l7.196-0.668
	c11.265-1.046,22.108-4.804,31.604-10.953l51.577-33.399c17.715-11.472,29.316-30.318,31.577-51.302l0,0
	C274.866,326.364,266.529,304.349,250.028,289.298z"/>
<path style="opacity:0.1;enable-background:new    ;" d="M250.028,289.298l-20.017-18.256c-0.234-0.214-0.478-0.417-0.715-0.628
	l3.786,3.452c16.501,15.05,24.838,37.066,22.445,59.271l0,0c-2.261,20.984-13.862,39.83-31.577,51.302l-51.577,33.399
	c-9.496,6.149-20.34,9.907-31.604,10.953l-7.197,0.668c-15.904,1.477-31.537-2.54-44.532-10.945
	c14.65,18.578,37.764,28.58,61.479,26.378l7.197-0.668c11.265-1.046,22.108-4.804,31.604-10.953l51.577-33.399
	c17.715-11.472,29.316-30.318,31.577-51.302l0,0C274.866,326.364,266.529,304.349,250.028,289.298z"/>
<circle style="fill:#3D4A58;" cx="168.781" cy="350.93" r="14.913"/>
<path style="opacity:0.1;enable-background:new    ;" d="M272.782,337.526c-3.603-0.978-7.39-1.51-11.304-1.51
	c-23.78,0-43.058,19.278-43.058,43.058c0,10.891,4.052,20.829,10.718,28.412l11.758-7.614
	c17.715-11.472,29.316-30.318,31.577-51.302l0,0C272.872,344.872,272.966,341.181,272.782,337.526z"/>
<path style="opacity:0.1;enable-background:new    ;" d="M116.875,259.191l-3.675,3.398c5.854,16.828,21.845,28.91,40.667,28.91
	c23.734,0,42.981-19.205,43.055-42.922C170.921,234.95,138.806,238.917,116.875,259.191z"/>
<path style="opacity:0.1;enable-background:new    ;" d="M73.948,305.947l-5.46,8.609c-8.478,13.37-11.982,28.853-10.591,43.955
	c2.802,0.963,5.806,1.493,8.935,1.493c15.185,0,27.496-12.311,27.496-27.496C94.328,319.784,85.683,309.083,73.948,305.947z"/>
<g>
	<path style="fill:#F6CE6E;" d="M224.405,189.749c-1.831,0-3.666-0.666-5.113-2.014c-3.03-2.824-3.197-7.571-0.373-10.601
		c19.898-21.35,66.496-71.348,129.111-95.06c3.872-1.467,8.204,0.484,9.671,4.359c1.467,3.875-0.483,8.204-4.358,9.671
		c-59.341,22.472-104.265,70.675-123.45,91.258C228.417,188.947,226.413,189.749,224.405,189.749z"/>
	<path style="fill:#F6CE6E;" d="M303.909,256.478c-2.029,0-4.052-0.818-5.531-2.432c-2.799-3.053-2.593-7.798,0.46-10.597
		c8.808-8.074,43.429-28.355,57.815-34.521c3.808-1.63,8.218,0.132,9.849,3.94c1.632,3.808-0.132,8.217-3.94,9.849
		c-13.607,5.832-46.659,25.44-53.585,31.789C307.537,255.826,305.72,256.478,303.909,256.478z"/>
	<path style="fill:#F6CE6E;" d="M126.781,217.212c-1.507,0-3.028-0.453-4.349-1.394c-3.372-2.405-4.158-7.089-1.752-10.462
		c0.803-1.126,1.678-2.342,2.607-3.634c7.769-10.798,19.51-27.118,24.799-40.456c1.526-3.853,5.889-5.735,9.737-4.208
		c3.852,1.527,5.735,5.887,4.208,9.737c-5.974,15.064-18.366,32.289-26.567,43.688c-0.917,1.274-1.779,2.472-2.571,3.583
		C131.431,216.119,129.123,217.212,126.781,217.212z"/>
</g>
<path d="M224.957,276.584l13.694,12.49c3.062,2.792,7.805,2.573,10.597-0.487c2.791-3.061,2.573-7.805-0.487-10.597l-13.694-12.49
	c-2.938-2.68-6.11-5.154-9.427-7.352l-18.364-12.168c-29.892-19.807-69.159-16.638-95.492,7.703l-25.373,23.456
	c-4.932,4.559-9.255,9.745-12.852,15.416L62.155,310.54c-16.953,26.733-16.057,60.676,2.283,86.477l16.385,23.051
	c14.589,20.524,38.352,32.624,63.277,32.623c2.361,0,4.738-0.109,7.113-0.33l7.196-0.668c12.419-1.152,24.518-5.346,34.988-12.126
	l51.577-33.399c19.701-12.758,32.442-33.459,34.959-56.796c1.742-16.169-1.556-32.205-9.536-46.376
	c-2.033-3.608-6.604-4.889-10.217-2.854c-3.609,2.032-4.888,6.607-2.854,10.216c6.439,11.431,9.098,24.366,7.692,37.408
	c-2.028,18.823-12.307,35.52-28.197,45.81l-51.577,33.399c-8.445,5.469-18.203,8.851-28.221,9.78l-7.196,0.668
	c-22.138,2.056-43.893-7.925-56.776-26.048l-16.385-23.051c-14.793-20.811-15.515-48.19-1.841-69.751l11.405-17.984
	c2.901-4.575,6.389-8.757,10.366-12.435l25.372-23.455c21.238-19.633,52.913-22.189,77.022-6.213l18.364,12.168
	C220.028,272.426,222.587,274.422,224.957,276.584z M194.694,293.317c-2.929,2.929-2.929,7.679,0,10.608l5,5
	c1.464,1.464,3.384,2.197,5.304,2.197c1.919,0,3.84-0.733,5.304-2.197c2.929-2.929,2.929-7.679,0-10.608l-5-5
	C202.373,290.388,197.623,290.388,194.694,293.317z M251.273,64.622c4.143,0,7.501-3.358,7.501-7.501v-1.216
	c0-4.143-3.358-7.501-7.501-7.501s-7.501,3.358-7.501,7.501v1.216C243.772,61.264,247.131,64.622,251.273,64.622z M312.453,33.956
	c4.143,0,7.501-3.358,7.501-7.501V25.24c0-4.143-3.358-7.501-7.501-7.501c-4.144,0-7.501,3.358-7.501,7.501v1.215
	C304.952,30.598,308.31,33.956,312.453,33.956z M38.201,274.662l0.53-0.81c4.978-7.094,10.901-14.627,18.078-22.991
	c0.642-0.749,1.287-1.495,1.933-2.238c16.332-18.771,31.346-39.462,44.627-61.5c31.076-51.57,73.615-108.269,103.448-137.882
	c0.064-0.064,0.111-0.099,0.121-0.113c0.087,0.017,0.218,0.093,0.287,0.164c-0.007,0.031-0.018,0.074-0.038,0.129
	c-5.354,15.346-10.612,32.829-16.077,53.448c-1.64,6.188,0.623,12.656,5.765,16.477c5.132,3.813,11.962,4.115,17.402,0.766
	c57.97-35.691,119.652-63.131,183.333-81.556c3.98-1.151,6.272-5.312,5.12-9.29c-1.15-3.981-5.311-6.268-9.29-5.121
	c-64.98,18.803-127.905,46.792-187.026,83.192c-0.161,0.098-0.299,0.184-0.589-0.032c-0.308-0.229-0.259-0.413-0.212-0.591
	c5.366-20.245,10.515-37.369,15.741-52.351c2.38-6.824-0.128-13.996-6.239-17.848c-6.134-3.866-13.715-3.029-18.865,2.081
	c-31.096,30.867-73.585,87.444-105.728,140.785c-12.833,21.296-27.333,41.28-43.097,59.398c-0.669,0.77-1.337,1.542-2.001,2.316
	c-7.835,9.132-14.274,17.362-19.683,25.161l-5.926,8.6l0.577,0.166c-23.938,41.99-26.994,92.523-8.144,140.23
	c1.165,2.948,3.99,4.747,6.978,4.747c0.917,0,1.85-0.169,2.754-0.527c3.853-1.522,5.743-5.88,4.22-9.732
	C7.864,363.331,12.238,314.098,38.201,274.662z M510.35,13.846c-3.416-7.614-11.269-11.925-19.539-10.734
	c-22.738,3.28-45.628,7.722-68.032,13.202c-4.024,0.984-6.488,5.045-5.504,9.068c0.984,4.025,5.044,6.488,9.068,5.504
	c21.937-5.366,44.348-9.714,66.609-12.926c2.28-0.331,3.307,1.129,3.71,2.029c0.4,0.891,0.81,2.605-0.939,4.08
	c-29.239,24.654-85.085,75.964-130.594,142.601c-3.272,4.792-2.926,10.962,0.859,15.356c3.788,4.397,9.843,5.65,15.069,3.122
	c25.646-12.414,48.704-22.046,66.682-27.859c0.039-0.013,0.072-0.021,0.099-0.028c0.064,0.07,0.154,0.177,0.148,0.163
	c0,0-0.028,0.052-0.124,0.145c-33.897,32.822-70.058,77.24-101.963,116.43l-7.269,8.926c-22.096,27.107-36.942,60.306-42.932,96.01
	c-0.025,0.15-0.051,0.291-0.078,0.433c-7.964,41.349-33.78,76.769-70.827,97.18c-37.925,20.895-82.385,23.166-125.187,6.398
	c-23.755-9.308-44.073-25.237-58.756-46.067c-2.386-3.385-7.065-4.195-10.452-1.809c-3.385,2.386-4.196,7.066-1.809,10.452
	c16.381,23.238,39.046,41.01,65.546,51.392c20.743,8.127,41.86,12.17,62.587,12.17c26.262,0,51.894-6.494,75.311-19.395
	c40.964-22.568,69.509-61.744,78.318-107.474c0.048-0.25,0.097-0.516,0.144-0.797c5.561-33.14,19.312-63.922,39.765-89.013
	l7.275-8.933c31.642-38.866,67.505-82.919,100.764-115.124c5.186-5.02,6.173-12.547,2.458-18.73
	c-3.703-6.164-10.787-8.816-17.631-6.603c-16.686,5.395-37.466,13.903-60.494,24.756c43.51-61.588,95.198-108.99,122.765-132.234
	C511.77,30.163,513.762,21.446,510.35,13.846z M465.787,99.337c-4.143,0-7.501,3.358-7.501,7.501v1.216
	c0,4.143,3.358,7.501,7.501,7.501c4.144,0,7.501-3.358,7.501-7.501v-1.216C473.288,102.696,469.931,99.337,465.787,99.337z
	 M111.167,376.843c-2.929,2.929-2.929,7.679,0,10.607l5,5c1.464,1.464,3.384,2.197,5.304,2.197s3.84-0.732,5.304-2.197
	c2.929-2.929,2.929-7.679,0-10.607l-5-5C118.846,373.914,114.097,373.914,111.167,376.843z M442.374,221.968
	c-4.144,0-7.501,3.358-7.501,7.501v1.216c0,4.143,3.357,7.501,7.501,7.501s7.501-3.358,7.501-7.501v-1.216
	C449.875,225.326,446.518,221.968,442.374,221.968z M152.931,335.08c-8.739,8.739-8.739,22.959,0,31.698
	c4.37,4.37,10.109,6.555,15.849,6.555s11.48-2.185,15.849-6.555c8.739-8.739,8.739-22.959,0-31.698S161.67,326.341,152.931,335.08z
	 M174.022,356.171c-2.89,2.89-7.593,2.89-10.483,0s-2.89-7.593,0-10.482c1.445-1.445,3.343-2.167,5.242-2.167
	c1.898,0,3.797,0.722,5.242,2.167C176.911,348.578,176.911,353.281,174.022,356.171z"/>
<g>
</g>
<g>
</g>
<g>
</g>
<g>
</g>
<g>
</g>
<g>
</g>
<g>
</g>
<g>
</g>
<g>
</g>
<g>
</g>
<g>
</g>
<g>
</g>
<g>
</g>
<g>
</g>
<g>
</g>
</svg>
